# xmcd
#
# Track frame offsets: 
#        150
#        17363
#        36759
#        53260
#        67894
#        82530
#        100346
#        118509
#        136410
#        149520
#        168279
#        185435
#        200704
#        218345
#        232729
#        244935
#        261251
#        271353
#
# Disc length: 3807 seconds
#
# Revision: 2
# Processed by: cddbd v1.5.2PL0 Copyright (c) Steve Scherf et al.
# Submitted via: ExactAudioCopyFreeDBPlugin 1.0
#
DISCID=e80edd12
DTITLE=Various Artist - Promo Only Country January 2006
DYEAR=2006
DGENRE=Country
TTITLE0=Bon Jovi with Jennifer Nettles - Who Says You Can't Go Home
TTITLE1=Keith Urban - Tonight I Wanna Cry
TTITLE2=Craig Morgan - I Got You
TTITLE3=Jo Dee Messina - Not Going Down
TTITLE4=SHeDaisy - I'm Taking The Wheel
TTITLE5=LeAnn Rimes - Something's Gotta Give
TTITLE6=Lonestar - I'll Die Tryin'
TTITLE7=Keith Anderson - Everytime I Hear Your Name
TTITLE8=Jamie O'Neal - I Love My Life
TTITLE9=Mark McGuinn - Bring 'Em Back
TTITLE10=Lee Ann Womack - Twenty Years And Two Husbands Ago
TTITLE11=Kenny Rogers - I Can't Unlove You
TTITLE12=Tyler Dean - Somebody Who Would Die For You
TTITLE13=Chely Wright - C'Est La Vie
TTITLE14=Merle Haggard - America First
TTITLE15=Kathy Mattea - Live It
TTITLE16=Narvel Felts - Loretta
TTITLE17=Susan Haynes - Drinkin' In My Sunday Dress
EXTD=
EXTT0=
EXTT1=
EXTT2=
EXTT3=
EXTT4=
EXTT5=
EXTT6=
EXTT7=
EXTT8=
EXTT9=
EXTT10=
EXTT11=
EXTT12=
EXTT13=
EXTT14=
EXTT15=
EXTT16=
EXTT17=
PLAYORDER=
